<svg xmlns="http://www.w3.org/2000/svg" xmlns:xlink="http://www.w3.org/1999/xlink" width="194.517" height="50.398" viewBox="0 0 194.517 50.398">
  <defs>
    <clipPath id="clip-path">
      <rect id="Rectangle_319" data-name="Rectangle 319" width="194.517" height="50.398"/>
    </clipPath>
  </defs>
  <g id="Group_74" data-name="Group 74" transform="translate(0)">
    <g id="Group_73" data-name="Group 73" transform="translate(0 0)" clip-path="url(#clip-path)">
      <path id="Path_242" data-name="Path 242" d="M94.516,18.993,94.1,17.566c-.022-.043-.048-.064-.08-.064H90.365c-.032,0-.059.021-.081.064l-.416,1.427a.212.212,0,0,1-.225.159H87.19a.178.178,0,0,1-.144-.055.175.175,0,0,1-.016-.168L90.46,8.092a.2.2,0,0,1,.208-.162H93.7a.2.2,0,0,1,.209.162l3.446,10.836a.2.2,0,0,1,.015.08c0,.1-.058.144-.176.144H94.74a.21.21,0,0,1-.225-.159M90.99,15.449h2.388c.064,0,.086-.031.064-.1l-1.218-4.119c-.01-.042-.026-.062-.047-.057s-.038.024-.049.057l-1.2,4.119c-.011.065.009.1.064.1" transform="translate(-5.216 -0.475)"/>
      <path id="Path_243" data-name="Path 243" d="M109.419,18.993,109,17.566c-.022-.043-.048-.064-.08-.064h-3.655c-.032,0-.059.021-.081.064l-.416,1.427a.212.212,0,0,1-.225.159h-2.453a.178.178,0,0,1-.144-.055.175.175,0,0,1-.016-.168l3.43-10.836a.2.2,0,0,1,.208-.162H108.6a.2.2,0,0,1,.209.162l3.446,10.836a.2.2,0,0,1,.015.08c0,.1-.058.144-.176.144h-2.453a.21.21,0,0,1-.225-.159m-3.526-3.544h2.388c.064,0,.086-.031.064-.1l-1.218-4.119c-.01-.042-.026-.062-.047-.057s-.038.024-.049.057l-1.2,4.119c-.011.065.009.1.064.1" transform="translate(-6.11 -0.475)"/>
      <path id="Path_244" data-name="Path 244" d="M117.3,19.1a.187.187,0,0,1-.057-.137V8.123a.2.2,0,0,1,.193-.193h2.276a.188.188,0,0,1,.137.057.182.182,0,0,1,.055.135V16.8a.07.07,0,0,0,.08.08H125.1a.183.183,0,0,1,.134.056.185.185,0,0,1,.058.136v1.89a.188.188,0,0,1-.058.137.183.183,0,0,1-.134.056H117.44a.182.182,0,0,1-.135-.056" transform="translate(-7.028 -0.475)"/>
      <path id="Path_245" data-name="Path 245" d="M137.093,13.411a2.675,2.675,0,0,1,1.46,2.565,2.734,2.734,0,0,1-1.106,2.389,4.9,4.9,0,0,1-2.9.786h-4.264a.183.183,0,0,1-.135-.056.185.185,0,0,1-.056-.136V8.122a.194.194,0,0,1,.192-.193h4.136a4.952,4.952,0,0,1,2.957.739,2.769,2.769,0,0,1,1,2.389,2.369,2.369,0,0,1-1.283,2.26c-.063.032-.063.064,0,.095m-4.344-3.125v2.02a.071.071,0,0,0,.081.08h1.587a1.588,1.588,0,0,0,1.01-.28.958.958,0,0,0,.353-.794,1,1,0,0,0-.353-.818,1.56,1.56,0,0,0-1.01-.289H132.83a.072.072,0,0,0-.081.081m2.79,6.276a1.21,1.21,0,0,0,.008-1.7,1.5,1.5,0,0,0-1-.3H132.83a.071.071,0,0,0-.081.08v2.132a.071.071,0,0,0,.081.08h1.715a1.5,1.5,0,0,0,.995-.3" transform="translate(-7.798 -0.475)"/>
      <path id="Path_246" data-name="Path 246" d="M145.568,18.8a3.756,3.756,0,0,1-1.531-1.466,4.318,4.318,0,0,1-.544-2.2V11.93a4.2,4.2,0,0,1,.544-2.156,3.771,3.771,0,0,1,1.531-1.46,5.287,5.287,0,0,1,4.576,0,3.758,3.758,0,0,1,1.54,1.46,4.214,4.214,0,0,1,.544,2.156v3.206a4.327,4.327,0,0,1-.544,2.2,3.743,3.743,0,0,1-1.54,1.466,5.287,5.287,0,0,1-4.576,0m3.526-2.252a1.847,1.847,0,0,0,.474-1.33V11.9a1.861,1.861,0,0,0-.474-1.324,1.761,1.761,0,0,0-2.469,0,1.865,1.865,0,0,0-.473,1.324v3.318a1.85,1.85,0,0,0,.473,1.33,1.783,1.783,0,0,0,2.469,0" transform="translate(-8.602 -0.467)"/>
      <path id="Path_247" data-name="Path 247" d="M163.124,19.008l-1.891-4.264a.1.1,0,0,0-.1-.064h-1.058a.071.071,0,0,0-.081.081v4.2a.185.185,0,0,1-.056.136.183.183,0,0,1-.135.056H157.53a.191.191,0,0,1-.192-.193V8.123a.182.182,0,0,1,.055-.135.186.186,0,0,1,.136-.057h4.76a3.854,3.854,0,0,1,1.86.433,3.048,3.048,0,0,1,1.242,1.227,3.677,3.677,0,0,1,.441,1.819,3.254,3.254,0,0,1-.528,1.86,2.982,2.982,0,0,1-1.475,1.138.076.076,0,0,0-.049.112l2.116,4.408a.247.247,0,0,1,.033.1c0,.086-.059.129-.177.129h-2.4a.227.227,0,0,1-.225-.145M160,10.288v2.276a.07.07,0,0,0,.081.08h1.78a1.391,1.391,0,0,0,.962-.329,1.112,1.112,0,0,0,.368-.872,1.162,1.162,0,0,0-.368-.9,1.373,1.373,0,0,0-.962-.337h-1.78a.071.071,0,0,0-.081.081" transform="translate(-9.432 -0.475)"/>
      <path id="Path_248" data-name="Path 248" d="M172.734,18.759a3.7,3.7,0,0,1-1.507-1.442,4.219,4.219,0,0,1-.537-2.148V11.882a4.178,4.178,0,0,1,.537-2.141,3.712,3.712,0,0,1,1.507-1.434,4.753,4.753,0,0,1,2.252-.513,4.947,4.947,0,0,1,2.244.489,3.7,3.7,0,0,1,1.515,1.339,3.447,3.447,0,0,1,.537,1.874v.081a.184.184,0,0,1-.056.136.181.181,0,0,1-.135.056h-2.277a.18.18,0,0,1-.136-.056.184.184,0,0,1-.056-.136,1.448,1.448,0,0,0-.441-1.065,1.608,1.608,0,0,0-1.194-.442,1.546,1.546,0,0,0-1.186.481,1.757,1.757,0,0,0-.449,1.25v3.447a1.66,1.66,0,0,0,.5,1.25,1.72,1.72,0,0,0,1.25.479,1.666,1.666,0,0,0,1.137-.376,1.318,1.318,0,0,0,.433-1.05V15.1a.072.072,0,0,0-.08-.081h-1.6a.191.191,0,0,1-.193-.193V13.068a.183.183,0,0,1,.056-.135.186.186,0,0,1,.136-.057h4.1a.185.185,0,0,1,.135.057.183.183,0,0,1,.056.135v2.181a4.11,4.11,0,0,1-.537,2.116,3.627,3.627,0,0,1-1.507,1.41,4.867,4.867,0,0,1-2.252.5,4.742,4.742,0,0,1-2.252-.513" transform="translate(-10.232 -0.467)"/>
      <path id="Path_249" data-name="Path 249" d="M89.416,40.106a3.6,3.6,0,0,1-1.507-1.387,3.953,3.953,0,0,1-.537-2.067V29.439a.194.194,0,0,1,.192-.193h2.277a.193.193,0,0,1,.192.193v7.214a1.664,1.664,0,0,0,.442,1.21,1.56,1.56,0,0,0,1.178.458,1.54,1.54,0,0,0,1.162-.458,1.667,1.667,0,0,0,.441-1.21V29.439a.183.183,0,0,1,.056-.135.181.181,0,0,1,.136-.057h2.276a.194.194,0,0,1,.193.193v7.214a3.993,3.993,0,0,1-.528,2.067,3.551,3.551,0,0,1-1.5,1.387,5.351,5.351,0,0,1-4.473,0" transform="translate(-5.238 -1.753)"/>
      <path id="Path_250" data-name="Path 250" d="M107.554,29.3a.183.183,0,0,1,.137-.057h2.275a.185.185,0,0,1,.137.057.187.187,0,0,1,.055.136V40.276a.193.193,0,0,1-.193.193h-2.18a.229.229,0,0,1-.224-.129l-3.687-6.123c-.023-.034-.043-.046-.064-.04s-.033.029-.033.071l.016,6.028a.194.194,0,0,1-.192.193h-2.277a.193.193,0,0,1-.192-.193V29.44a.193.193,0,0,1,.192-.194h2.2a.231.231,0,0,1,.225.129l3.671,6.108c.022.032.042.045.065.039s.031-.029.031-.071L107.5,29.44a.184.184,0,0,1,.056-.136" transform="translate(-6.063 -1.753)"/>
      <path id="Path_251" data-name="Path 251" d="M115.547,40.411a.184.184,0,0,1-.056-.136V29.439a.194.194,0,0,1,.193-.193h2.276a.194.194,0,0,1,.193.193V40.275a.194.194,0,0,1-.193.194h-2.276a.181.181,0,0,1-.136-.057" transform="translate(-6.923 -1.753)"/>
      <path id="Path_252" data-name="Path 252" d="M125.907,40.308,122.67,29.471l-.017-.064c0-.107.059-.161.177-.161h2.453a.21.21,0,0,1,.224.161L127.35,36.7c.011.032.026.048.049.048s.037-.016.048-.048l1.811-7.294a.213.213,0,0,1,.226-.161h2.4a.172.172,0,0,1,.145.065.165.165,0,0,1,.016.16l-3.286,10.837a.2.2,0,0,1-.209.161h-2.436a.2.2,0,0,1-.209-.161" transform="translate(-7.353 -1.753)"/>
      <path id="Path_253" data-name="Path 253" d="M144.82,31.465a.183.183,0,0,1-.136.057H139.65a.071.071,0,0,0-.081.08v1.971a.07.07,0,0,0,.081.08h3.222a.194.194,0,0,1,.193.193v1.875a.191.191,0,0,1-.193.192H139.65a.072.072,0,0,0-.081.081V38.11a.071.071,0,0,0,.081.081h5.033a.193.193,0,0,1,.193.193v1.891a.184.184,0,0,1-.056.136.182.182,0,0,1-.136.056H137.1a.178.178,0,0,1-.135-.056.18.18,0,0,1-.056-.136V29.439a.18.18,0,0,1,.056-.136.178.178,0,0,1,.135-.056h7.582a.182.182,0,0,1,.136.056.184.184,0,0,1,.056.136v1.89a.184.184,0,0,1-.056.136" transform="translate(-8.207 -1.753)"/>
      <path id="Path_254" data-name="Path 254" d="M155.6,40.323l-1.891-4.263a.1.1,0,0,0-.1-.064h-1.058a.071.071,0,0,0-.081.08v4.2a.183.183,0,0,1-.056.135.18.18,0,0,1-.135.057H150.01a.193.193,0,0,1-.192-.193V29.439a.193.193,0,0,1,.192-.193h4.76a3.854,3.854,0,0,1,1.86.433,3.043,3.043,0,0,1,1.242,1.227,3.675,3.675,0,0,1,.441,1.819,3.251,3.251,0,0,1-.528,1.859,2.982,2.982,0,0,1-1.475,1.138.076.076,0,0,0-.049.112l2.116,4.408a.25.25,0,0,1,.033.1c0,.086-.059.129-.177.129h-2.4a.228.228,0,0,1-.225-.146m-3.126-8.72v2.276a.071.071,0,0,0,.081.081h1.78a1.4,1.4,0,0,0,.962-.329,1.113,1.113,0,0,0,.369-.873,1.162,1.162,0,0,0-.369-.9,1.377,1.377,0,0,0-.962-.336h-1.78a.071.071,0,0,0-.081.08" transform="translate(-8.981 -1.753)"/>
      <path id="Path_255" data-name="Path 255" d="M165.094,40.162a3.411,3.411,0,0,1-1.523-1.217,3.2,3.2,0,0,1-.537-1.836v-.3a.183.183,0,0,1,.055-.136.185.185,0,0,1,.136-.056h2.229a.193.193,0,0,1,.192.193V37a1.133,1.133,0,0,0,.528.921,2.34,2.34,0,0,0,1.427.393,1.518,1.518,0,0,0,1.043-.3.927.927,0,0,0,.337-.705.711.711,0,0,0-.2-.522,1.6,1.6,0,0,0-.537-.336q-.337-.138-1.043-.377a.952.952,0,0,0-.193-.073,1.332,1.332,0,0,1-.176-.055,12.111,12.111,0,0,1-1.812-.73,3.9,3.9,0,0,1-1.315-1.089,2.716,2.716,0,0,1-.544-1.724,2.957,2.957,0,0,1,.521-1.738,3.315,3.315,0,0,1,1.451-1.147,5.7,5.7,0,0,1,4.321.049A3.66,3.66,0,0,1,171,30.825a3.227,3.227,0,0,1,.562,1.876v.224a.186.186,0,0,1-.057.136.183.183,0,0,1-.135.056h-2.228a.191.191,0,0,1-.193-.193v-.112a1.289,1.289,0,0,0-.5-.994,1.948,1.948,0,0,0-1.33-.433,1.645,1.645,0,0,0-.979.257.841.841,0,0,0-.352.721.806.806,0,0,0,.225.585,2.113,2.113,0,0,0,.7.433c.316.134.8.307,1.451.522q1.121.384,1.747.673a3.492,3.492,0,0,1,1.178.937,2.54,2.54,0,0,1,.554,1.707,3.045,3.045,0,0,1-.529,1.8,3.391,3.391,0,0,1-1.483,1.163,5.6,5.6,0,0,1-2.219.408,5.809,5.809,0,0,1-2.316-.425" transform="translate(-9.773 -1.745)"/>
      <path id="Path_256" data-name="Path 256" d="M176.7,40.411a.184.184,0,0,1-.056-.136V29.439a.194.194,0,0,1,.193-.193h2.276a.194.194,0,0,1,.193.193V40.275a.194.194,0,0,1-.193.194h-2.276a.181.181,0,0,1-.136-.057" transform="translate(-10.589 -1.753)"/>
      <path id="Path_257" data-name="Path 257" d="M192.451,29.3a.187.187,0,0,1,.056.136v1.907a.193.193,0,0,1-.194.192h-2.8a.071.071,0,0,0-.081.08v8.657a.192.192,0,0,1-.192.193h-2.277a.194.194,0,0,1-.192-.193V31.619a.071.071,0,0,0-.081-.08h-2.709a.193.193,0,0,1-.192-.192V29.44a.184.184,0,0,1,.056-.136.18.18,0,0,1,.135-.057h8.335a.184.184,0,0,1,.137.057" transform="translate(-11.017 -1.753)"/>
      <path id="Path_258" data-name="Path 258" d="M200.359,40.38a.186.186,0,0,1-.056-.137v-3.8a.232.232,0,0,0-.015-.1L197,29.471a.223.223,0,0,1-.032-.1c0-.086.058-.129.176-.129h2.469a.227.227,0,0,1,.225.146l1.748,4.054q.048.1.1,0l1.764-4.054a.225.225,0,0,1,.224-.146h2.485a.175.175,0,0,1,.152.057.172.172,0,0,1-.008.167l-3.334,6.877a.23.23,0,0,0-.016.1v3.8a.191.191,0,0,1-.192.193H200.5a.189.189,0,0,1-.137-.055" transform="translate(-11.808 -1.753)"/>
      <path id="Path_259" data-name="Path 259" d="M50.046,38.892a20.182,20.182,0,0,1-4.812-2.406c-5.629-3.994-8.163-8.617-4.557-18.4A38.021,38.021,0,0,0,43.484,2.811c-.07-.055-.344-.235-.409-.29-1.121,6.806-3,10.162-7.221,17.019C26.3,35.06,35.283,44.56,39.53,47.989a26.242,26.242,0,0,0,10.516-9.1" transform="translate(-1.895 -0.151)"/>
      <path id="Path_260" data-name="Path 260" d="M30.226,18.923c6.664-8.42,9.395-11.945,9.984-17.6l-.354-.193c-1.8,6.833-5.54,9.82-16.692,17.533-11.594,8.02-11.183,20.1-8.023,28.917a26.091,26.091,0,0,0,11.945,2.883,26.5,26.5,0,0,0,2.718-.14c-7.974-12.757-7.351-21.58.422-31.4" transform="translate(-0.793 -0.067)"/>
      <path id="Path_261" data-name="Path 261" d="M24.892,12.462C32.453,8.718,35.806,4.98,37.289.156,37.222.124,36.937,0,36.933,0c-4.282,7.338-9.6,7.879-21.695,9.9C8.291,11.061,4.511,14.1.614,18.371A28.608,28.608,0,0,0,0,23.989,26.2,26.2,0,0,0,6.032,40.848c.216-19.71,9.414-23.708,18.859-28.386" transform="translate(0 0)"/>
    </g>
  </g>
</svg>
